<!--?xml version="1.0" standalone="no"?-->              <svg id="sw-js-blob-svg" viewBox="0 0 100 100" xmlns="http://www.w3.org/2000/svg">                    <defs>                         <linearGradient id="sw-gradient" x1="0" x2="1" y1="1" y2="0">                            <stop id="stop1" stop-color="rgba(243, 244, 246, 1)" offset="0%"></stop>                            <stop id="stop2" stop-color="rgba(237.828, 240.161, 244.826, 1)" offset="100%"></stop>                        </linearGradient>                    </defs>                <path fill="rgba(243, 244, 246, 1)" d="M21,-35.3C25.8,-33.5,27.4,-25.1,28.2,-18.2C28.9,-11.2,28.8,-5.6,26.8,-1.2C24.7,3.2,20.7,6.4,18.3,10.5C15.8,14.6,15,19.5,12.2,23.2C9.4,26.9,4.7,29.4,1.5,26.7C-1.6,24.1,-3.2,16.2,-4.7,11.8C-6.2,7.3,-7.5,6.2,-8.6,4.8C-9.7,3.4,-10.7,1.7,-15.6,-2.8C-20.5,-7.4,-29.4,-14.7,-29.5,-18.3C-29.6,-21.8,-20.9,-21.6,-14.6,-22.4C-8.2,-23.3,-4.1,-25.3,2,-28.8C8.1,-32.2,16.1,-37,21,-35.3Z" width="100%" height="100%" transform="translate(50 50)" stroke-width="0" style="transition: all 0.3s ease 0s;" stroke="url(#sw-gradient)"></path>              </svg>