<svg xmlns="http://www.w3.org/2000/svg" viewBox="0 0 1440 320"><path fill="#273036" fill-opacity="1" d="M0,256L34.3,261.3C68.6,267,137,277,206,272C274.3,267,343,245,411,218.7C480,192,549,160,617,165.3C685.7,171,754,213,823,202.7C891.4,192,960,128,1029,106.7C1097.1,85,1166,107,1234,112C1302.9,117,1371,107,1406,101.3L1440,96L1440,320L1405.7,320C1371.4,320,1303,320,1234,320C1165.7,320,1097,320,1029,320C960,320,891,320,823,320C754.3,320,686,320,617,320C548.6,320,480,320,411,320C342.9,320,274,320,206,320C137.1,320,69,320,34,320L0,320Z"></path></svg>